<mxfile host="app.diagrams.net" modified="2022-09-22T15:55:15.220Z" agent="5.0 (Windows NT 10.0; Win64; x64) AppleWebKit/537.36 (KHTML, like Gecko) Chrome/105.0.0.0 Safari/537.36" etag="FE_TFEuBaniRBl3km4Hu" version="20.3.6" type="github">
  <diagram id="u7N0AmB1K6pQwlSy7rH5" name="Page-1">
    <mxGraphModel dx="868" dy="482" grid="1" gridSize="10" guides="1" tooltips="1" connect="1" arrows="1" fold="1" page="1" pageScale="1" pageWidth="850" pageHeight="1100" math="0" shadow="0">
      <root>
        <mxCell id="0" />
        <mxCell id="1" parent="0" />
        <mxCell id="YhQgEwYi43x9juMj1M6v-3" style="edgeStyle=orthogonalEdgeStyle;rounded=0;orthogonalLoop=1;jettySize=auto;html=1;exitX=1;exitY=0.5;exitDx=0;exitDy=0;fontFamily=Verdana;fontSize=17;" edge="1" parent="1" source="YhQgEwYi43x9juMj1M6v-2">
          <mxGeometry relative="1" as="geometry">
            <mxPoint x="550" y="310" as="targetPoint" />
            <Array as="points">
              <mxPoint x="460" y="240" />
              <mxPoint x="460" y="310" />
            </Array>
          </mxGeometry>
        </mxCell>
        <mxCell id="YhQgEwYi43x9juMj1M6v-5" style="edgeStyle=orthogonalEdgeStyle;rounded=0;orthogonalLoop=1;jettySize=auto;html=1;exitX=0.5;exitY=1;exitDx=0;exitDy=0;fontFamily=Verdana;fontSize=17;" edge="1" parent="1" source="YhQgEwYi43x9juMj1M6v-2">
          <mxGeometry relative="1" as="geometry">
            <mxPoint x="320" y="410" as="targetPoint" />
          </mxGeometry>
        </mxCell>
        <mxCell id="YhQgEwYi43x9juMj1M6v-2" value="&lt;font style=&quot;font-size: 17px;&quot;&gt;&lt;b&gt;this is a demo project&lt;/b&gt;&lt;/font&gt;" style="rounded=1;whiteSpace=wrap;html=1;fontFamily=Verdana;" vertex="1" parent="1">
          <mxGeometry x="160" y="200" width="200" height="80" as="geometry" />
        </mxCell>
        <mxCell id="YhQgEwYi43x9juMj1M6v-4" value="All trial&amp;nbsp; will go in this way" style="rounded=1;whiteSpace=wrap;html=1;fontFamily=Verdana;fontSize=17;" vertex="1" parent="1">
          <mxGeometry x="560" y="280" width="160" height="80" as="geometry" />
        </mxCell>
      </root>
    </mxGraphModel>
  </diagram>
</mxfile>
